<mxfile host="app.diagrams.net" modified="2020-12-10T13:35:06.420Z" agent="5.0 (Macintosh; Intel Mac OS X 10_15_3) AppleWebKit/537.36 (KHTML, like Gecko) Chrome/87.0.4280.88 Safari/537.36" etag="IKDCmgsHTSh_v8zRUZZn" version="14.0.0" type="github">
  <diagram id="e_Nu4UiDqZK5FSXZQxsC" name="Page-1">
    <mxGraphModel dx="1562" dy="501" grid="1" gridSize="10" guides="1" tooltips="1" connect="1" arrows="1" fold="1" page="1" pageScale="1" pageWidth="850" pageHeight="1100" math="0" shadow="0">
      <root>
        <mxCell id="0" />
        <mxCell id="1" parent="0" />
        <mxCell id="trqewR6XDROr1OXFbvpF-3" value="" style="whiteSpace=wrap;html=1;aspect=fixed;fillColor=#d5e8d4;strokeColor=#82b366;" parent="1" vertex="1">
          <mxGeometry x="120" y="40" width="240" height="240" as="geometry" />
        </mxCell>
        <mxCell id="trqewR6XDROr1OXFbvpF-5" value="" style="whiteSpace=wrap;html=1;aspect=fixed;fillColor=#f8cecc;strokeColor=#b85450;" parent="1" vertex="1">
          <mxGeometry x="360" y="40" width="240" height="240" as="geometry" />
        </mxCell>
        <mxCell id="trqewR6XDROr1OXFbvpF-6" value="" style="whiteSpace=wrap;html=1;aspect=fixed;fillColor=#fff2cc;strokeColor=#d6b656;" parent="1" vertex="1">
          <mxGeometry x="120" y="280" width="240" height="240" as="geometry" />
        </mxCell>
        <mxCell id="trqewR6XDROr1OXFbvpF-7" value="" style="whiteSpace=wrap;html=1;aspect=fixed;fillColor=#dae8fc;strokeColor=#6c8ebf;" parent="1" vertex="1">
          <mxGeometry x="360" y="280" width="240" height="240" as="geometry" />
        </mxCell>
        <mxCell id="trqewR6XDROr1OXFbvpF-8" value="Ecological" style="text;html=1;align=center;verticalAlign=middle;resizable=0;points=[];autosize=1;fontSize=20;" parent="1" vertex="1">
          <mxGeometry x="300" y="525" width="110" height="30" as="geometry" />
        </mxCell>
        <mxCell id="trqewR6XDROr1OXFbvpF-9" value="Formulaic" style="text;html=1;align=center;verticalAlign=middle;resizable=0;points=[];autosize=1;fontSize=20;" parent="1" vertex="1">
          <mxGeometry x="314" y="5" width="100" height="30" as="geometry" />
        </mxCell>
        <mxCell id="trqewR6XDROr1OXFbvpF-10" value="Enactivist" style="text;html=1;align=center;verticalAlign=middle;resizable=0;points=[];autosize=1;fontSize=20;" parent="1" vertex="1">
          <mxGeometry x="605" y="265" width="100" height="30" as="geometry" />
        </mxCell>
        <mxCell id="trqewR6XDROr1OXFbvpF-11" value="Functionalist" style="text;html=1;align=center;verticalAlign=middle;resizable=0;points=[];autosize=1;fontSize=20;" parent="1" vertex="1">
          <mxGeometry x="-9" y="265" width="130" height="30" as="geometry" />
        </mxCell>
        <mxCell id="trqewR6XDROr1OXFbvpF-18" value="Model Making" style="ellipse;whiteSpace=wrap;html=1;aspect=fixed;fontSize=12;labelPosition=left;verticalLabelPosition=middle;align=right;verticalAlign=middle;" parent="1" vertex="1">
          <mxGeometry x="250" y="344" width="10" height="10" as="geometry" />
        </mxCell>
        <mxCell id="trqewR6XDROr1OXFbvpF-23" value="Thousand&lt;br&gt;Brains" style="ellipse;whiteSpace=wrap;html=1;aspect=fixed;fontSize=12;labelPosition=left;verticalLabelPosition=middle;align=right;verticalAlign=middle;" parent="1" vertex="1">
          <mxGeometry x="370" y="395" width="10" height="10" as="geometry" />
        </mxCell>
        <mxCell id="trqewR6XDROr1OXFbvpF-26" value="GOFAI" style="ellipse;whiteSpace=wrap;html=1;aspect=fixed;fontSize=12;labelPosition=left;verticalLabelPosition=middle;align=right;verticalAlign=middle;" parent="1" vertex="1">
          <mxGeometry x="225" y="160" width="10" height="10" as="geometry" />
        </mxCell>
        <mxCell id="trqewR6XDROr1OXFbvpF-28" value="Deep Learning" style="ellipse;whiteSpace=wrap;html=1;aspect=fixed;fontSize=12;labelPosition=left;verticalLabelPosition=middle;align=right;verticalAlign=middle;fillColor=#FF0000;" parent="1" vertex="1">
          <mxGeometry x="465" y="255" width="10" height="10" as="geometry" />
        </mxCell>
        <mxCell id="trqewR6XDROr1OXFbvpF-29" value="Capsule&lt;br&gt;Networks" style="ellipse;whiteSpace=wrap;html=1;aspect=fixed;fontSize=12;labelPosition=left;verticalLabelPosition=middle;align=right;verticalAlign=middle;fillColor=#FF0000;" parent="1" vertex="1">
          <mxGeometry x="414" y="339" width="10" height="10" as="geometry" />
        </mxCell>
        <mxCell id="trqewR6XDROr1OXFbvpF-39" value="Meta Learning" style="ellipse;whiteSpace=wrap;html=1;aspect=fixed;fontSize=12;labelPosition=left;verticalLabelPosition=middle;align=right;verticalAlign=middle;" parent="1" vertex="1">
          <mxGeometry x="396" y="175" width="10" height="10" as="geometry" />
        </mxCell>
        <mxCell id="trqewR6XDROr1OXFbvpF-51" value="Openendedness" style="ellipse;whiteSpace=wrap;html=1;aspect=fixed;fontSize=12;labelPosition=left;verticalLabelPosition=middle;align=right;verticalAlign=middle;fillColor=#FF0000;" parent="1" vertex="1">
          <mxGeometry x="570" y="265" width="10" height="10" as="geometry" />
        </mxCell>
        <mxCell id="trqewR6XDROr1OXFbvpF-55" value="Analogy&lt;br&gt;Making" style="ellipse;whiteSpace=wrap;html=1;aspect=fixed;fontSize=12;labelPosition=left;verticalLabelPosition=middle;align=right;verticalAlign=middle;fillColor=#FF0000;" parent="1" vertex="1">
          <mxGeometry x="235" y="405" width="10" height="10" as="geometry" />
        </mxCell>
        <mxCell id="trqewR6XDROr1OXFbvpF-59" value="Illusionism" style="ellipse;whiteSpace=wrap;html=1;aspect=fixed;fontSize=12;labelPosition=left;verticalLabelPosition=middle;align=right;verticalAlign=middle;fillColor=#FF0000;" parent="1" vertex="1">
          <mxGeometry x="366" y="490" width="10" height="10" as="geometry" />
        </mxCell>
        <mxCell id="trqewR6XDROr1OXFbvpF-63" value="Compresson" style="ellipse;whiteSpace=wrap;html=1;aspect=fixed;fontSize=12;labelPosition=left;verticalLabelPosition=middle;align=right;verticalAlign=middle;" parent="1" vertex="1">
          <mxGeometry x="200" y="60" width="10" height="10" as="geometry" />
        </mxCell>
        <mxCell id="trqewR6XDROr1OXFbvpF-70" value="Cognitve Synergy" style="ellipse;whiteSpace=wrap;html=1;aspect=fixed;fontSize=12;labelPosition=left;verticalLabelPosition=middle;align=right;verticalAlign=middle;" parent="1" vertex="1">
          <mxGeometry x="370" y="230" width="10" height="10" as="geometry" />
        </mxCell>
        <mxCell id="trqewR6XDROr1OXFbvpF-71" value="Causal Graphs" style="ellipse;whiteSpace=wrap;html=1;aspect=fixed;fontSize=12;labelPosition=left;verticalLabelPosition=middle;align=right;verticalAlign=middle;" parent="1" vertex="1">
          <mxGeometry x="340" y="130" width="10" height="10" as="geometry" />
        </mxCell>
        <mxCell id="trqewR6XDROr1OXFbvpF-72" value="Quantity is Quality" style="ellipse;whiteSpace=wrap;html=1;aspect=fixed;fontSize=12;labelPosition=left;verticalLabelPosition=middle;align=right;verticalAlign=middle;" parent="1" vertex="1">
          <mxGeometry x="570" y="210" width="10" height="10" as="geometry" />
        </mxCell>
        <mxCell id="trqewR6XDROr1OXFbvpF-75" value="Reinforcement Learning" style="ellipse;whiteSpace=wrap;html=1;aspect=fixed;fontSize=12;labelPosition=left;verticalLabelPosition=middle;align=right;verticalAlign=middle;" parent="1" vertex="1">
          <mxGeometry x="580" y="310" width="10" height="10" as="geometry" />
        </mxCell>
        <mxCell id="trqewR6XDROr1OXFbvpF-78" value="Induction Bias" style="ellipse;whiteSpace=wrap;html=1;aspect=fixed;fontSize=12;labelPosition=left;verticalLabelPosition=middle;align=right;verticalAlign=middle;" parent="1" vertex="1">
          <mxGeometry x="370" y="290" width="10" height="10" as="geometry" />
        </mxCell>
        <mxCell id="trqewR6XDROr1OXFbvpF-83" value="Judgement" style="ellipse;whiteSpace=wrap;html=1;aspect=fixed;fontSize=12;labelPosition=left;verticalLabelPosition=middle;align=right;verticalAlign=middle;fillColor=#FF0000;" parent="1" vertex="1">
          <mxGeometry x="183" y="440" width="10" height="10" as="geometry" />
        </mxCell>
        <mxCell id="trqewR6XDROr1OXFbvpF-84" value="Bayesian&lt;br&gt;Brain" style="ellipse;whiteSpace=wrap;html=1;aspect=fixed;fontSize=12;labelPosition=left;verticalLabelPosition=middle;align=right;verticalAlign=middle;" parent="1" vertex="1">
          <mxGeometry x="495" y="195" width="10" height="10" as="geometry" />
        </mxCell>
        <mxCell id="trqewR6XDROr1OXFbvpF-86" value="Multitask Agility" style="ellipse;whiteSpace=wrap;html=1;aspect=fixed;fontSize=12;labelPosition=left;verticalLabelPosition=middle;align=right;verticalAlign=middle;" parent="1" vertex="1">
          <mxGeometry x="414" y="207" width="10" height="10" as="geometry" />
        </mxCell>
        <mxCell id="trqewR6XDROr1OXFbvpF-87" value="Contiguity" style="ellipse;whiteSpace=wrap;html=1;aspect=fixed;fontSize=12;labelPosition=left;verticalLabelPosition=middle;align=right;verticalAlign=middle;fillColor=#FF0000;" parent="1" vertex="1">
          <mxGeometry x="492" y="339" width="10" height="10" as="geometry" />
        </mxCell>
        <mxCell id="trqewR6XDROr1OXFbvpF-88" value="Co-Evolution" style="ellipse;whiteSpace=wrap;html=1;aspect=fixed;fontSize=12;labelPosition=left;verticalLabelPosition=middle;align=right;verticalAlign=middle;fillColor=#FF0000;" parent="1" vertex="1">
          <mxGeometry x="550" y="450" width="10" height="10" as="geometry" />
        </mxCell>
        <mxCell id="trqewR6XDROr1OXFbvpF-89" value="Free Energy Principle" style="ellipse;whiteSpace=wrap;html=1;aspect=fixed;fontSize=12;labelPosition=left;verticalLabelPosition=middle;align=right;verticalAlign=middle;" parent="1" vertex="1">
          <mxGeometry x="520" y="110" width="10" height="10" as="geometry" />
        </mxCell>
        <mxCell id="LOAbWyqPgFJrH-aSDBwY-21" value="Computational Complexity" style="ellipse;whiteSpace=wrap;html=1;aspect=fixed;fontSize=12;labelPosition=left;verticalLabelPosition=middle;align=right;verticalAlign=middle;" parent="1" vertex="1">
          <mxGeometry x="310" y="205" width="10" height="10" as="geometry" />
        </mxCell>
        <mxCell id="eXJtEBARMdF0W1MzuHGJ-7" value="Explanation&lt;br&gt;Generation" style="ellipse;whiteSpace=wrap;html=1;aspect=fixed;fontSize=12;labelPosition=left;verticalLabelPosition=middle;align=right;verticalAlign=middle;" parent="1" vertex="1">
          <mxGeometry x="235" y="370" width="10" height="10" as="geometry" />
        </mxCell>
        <mxCell id="eXJtEBARMdF0W1MzuHGJ-12" value="SelfPlay" style="ellipse;whiteSpace=wrap;html=1;aspect=fixed;fontSize=12;labelPosition=left;verticalLabelPosition=middle;align=right;verticalAlign=middle;fillColor=#FF0000;" parent="1" vertex="1">
          <mxGeometry x="540" y="359" width="10" height="10" as="geometry" />
        </mxCell>
        <mxCell id="eXJtEBARMdF0W1MzuHGJ-14" value="Heuristic Toolbox" style="ellipse;whiteSpace=wrap;html=1;aspect=fixed;fontSize=12;labelPosition=left;verticalLabelPosition=middle;align=right;verticalAlign=middle;" parent="1" vertex="1">
          <mxGeometry x="250" y="320" width="10" height="10" as="geometry" />
        </mxCell>
        <mxCell id="eXJtEBARMdF0W1MzuHGJ-15" value="Causal Entropic" style="ellipse;whiteSpace=wrap;html=1;aspect=fixed;fontSize=12;labelPosition=left;verticalLabelPosition=middle;align=right;verticalAlign=middle;" parent="1" vertex="1">
          <mxGeometry x="376" y="70" width="10" height="10" as="geometry" />
        </mxCell>
        <mxCell id="eXJtEBARMdF0W1MzuHGJ-17" value="Solomonoff Induction" style="ellipse;whiteSpace=wrap;html=1;aspect=fixed;fontSize=12;labelPosition=left;verticalLabelPosition=middle;align=right;verticalAlign=middle;direction=west;" parent="1" vertex="1">
          <mxGeometry x="183" y="90" width="10" height="10" as="geometry" />
        </mxCell>
        <mxCell id="k-j6yH_58D2AUaqItA9q-1" value="Environmental&lt;br&gt;Complexity" style="ellipse;whiteSpace=wrap;html=1;aspect=fixed;fontSize=12;labelPosition=left;verticalLabelPosition=middle;align=right;verticalAlign=middle;" parent="1" vertex="1">
          <mxGeometry x="530" y="405" width="10" height="10" as="geometry" />
        </mxCell>
        <mxCell id="k-j6yH_58D2AUaqItA9q-2" value="Counterfactual&lt;br&gt;Possibilities" style="ellipse;whiteSpace=wrap;html=1;aspect=fixed;fontSize=12;labelPosition=left;verticalLabelPosition=middle;align=right;verticalAlign=middle;fillColor=#FF0000;" parent="1" vertex="1">
          <mxGeometry x="380" y="320" width="10" height="10" as="geometry" />
        </mxCell>
        <mxCell id="k-j6yH_58D2AUaqItA9q-5" value="Constructive&lt;br&gt;Dvelopment" style="ellipse;whiteSpace=wrap;html=1;aspect=fixed;fontSize=12;labelPosition=left;verticalLabelPosition=middle;align=right;verticalAlign=middle;fillColor=#FF0000;" parent="1" vertex="1">
          <mxGeometry x="485" y="165" width="10" height="10" as="geometry" />
        </mxCell>
        <mxCell id="k-j6yH_58D2AUaqItA9q-6" value="Perspective Control" style="ellipse;whiteSpace=wrap;html=1;aspect=fixed;fontSize=12;labelPosition=left;verticalLabelPosition=middle;align=right;verticalAlign=middle;fillColor=#FF0000;" parent="1" vertex="1">
          <mxGeometry x="460" y="320" width="10" height="10" as="geometry" />
        </mxCell>
        <mxCell id="QWCSz0HMptk9CQ3aTMiP-1" value="Systematic&lt;br&gt;Generalization" style="ellipse;whiteSpace=wrap;html=1;aspect=fixed;fontSize=12;labelPosition=left;verticalLabelPosition=middle;align=right;verticalAlign=middle;fillColor=#FF0000;" parent="1" vertex="1">
          <mxGeometry x="450" y="130" width="10" height="10" as="geometry" />
        </mxCell>
        <mxCell id="QWCSz0HMptk9CQ3aTMiP-2" value="Program&lt;br&gt;Induction" style="ellipse;whiteSpace=wrap;html=1;aspect=fixed;fontSize=12;labelPosition=left;verticalLabelPosition=middle;align=right;verticalAlign=middle;strokeColor=#3D3D3D;fillColor=#FF0000;" parent="1" vertex="1">
          <mxGeometry x="310" y="165" width="10" height="10" as="geometry" />
        </mxCell>
        <mxCell id="IPhS42mVwaJLq9LUPgia-1" value="Allostasis" style="ellipse;whiteSpace=wrap;html=1;aspect=fixed;fontSize=12;labelPosition=left;verticalLabelPosition=middle;align=right;verticalAlign=middle;fillColor=#FF0000;" parent="1" vertex="1">
          <mxGeometry x="436" y="405" width="10" height="10" as="geometry" />
        </mxCell>
        <mxCell id="IPhS42mVwaJLq9LUPgia-3" value="Homeostasis" style="ellipse;whiteSpace=wrap;html=1;aspect=fixed;fontSize=12;labelPosition=left;verticalLabelPosition=middle;align=right;verticalAlign=middle;" parent="1" vertex="1">
          <mxGeometry x="314" y="415" width="10" height="10" as="geometry" />
        </mxCell>
        <mxCell id="IPhS42mVwaJLq9LUPgia-6" value="Conversation" style="ellipse;whiteSpace=wrap;html=1;aspect=fixed;fontSize=12;labelPosition=left;verticalLabelPosition=middle;align=right;verticalAlign=middle;fillColor=#FF0000;" parent="1" vertex="1">
          <mxGeometry x="530" y="370" width="10" height="10" as="geometry" />
        </mxCell>
        <mxCell id="IPhS42mVwaJLq9LUPgia-7" value="Motion" style="ellipse;whiteSpace=wrap;html=1;aspect=fixed;fontSize=12;labelPosition=left;verticalLabelPosition=middle;align=right;verticalAlign=middle;" parent="1" vertex="1">
          <mxGeometry x="465" y="385" width="10" height="10" as="geometry" />
        </mxCell>
        <mxCell id="IPhS42mVwaJLq9LUPgia-8" value="Strange&lt;br&gt;Inversion" style="ellipse;whiteSpace=wrap;html=1;aspect=fixed;fontSize=12;labelPosition=left;verticalLabelPosition=middle;align=right;verticalAlign=middle;" parent="1" vertex="1">
          <mxGeometry x="475" y="290" width="10" height="10" as="geometry" />
        </mxCell>
        <mxCell id="IPhS42mVwaJLq9LUPgia-9" value="InsideOut" style="ellipse;whiteSpace=wrap;html=1;aspect=fixed;fontSize=12;labelPosition=left;verticalLabelPosition=middle;align=right;verticalAlign=middle;fillColor=#FF0000;" parent="1" vertex="1">
          <mxGeometry x="550" y="285" width="10" height="10" as="geometry" />
        </mxCell>
        <mxCell id="IPhS42mVwaJLq9LUPgia-10" value="Predictive&lt;br&gt;Coding" style="ellipse;whiteSpace=wrap;html=1;aspect=fixed;fontSize=12;labelPosition=left;verticalLabelPosition=middle;align=right;verticalAlign=middle;" parent="1" vertex="1">
          <mxGeometry x="540" y="150" width="10" height="10" as="geometry" />
        </mxCell>
        <mxCell id="IPhS42mVwaJLq9LUPgia-11" value="Extended Mind" style="ellipse;whiteSpace=wrap;html=1;aspect=fixed;fontSize=12;labelPosition=left;verticalLabelPosition=middle;align=right;verticalAlign=middle;" parent="1" vertex="1">
          <mxGeometry x="440" y="373" width="10" height="10" as="geometry" />
        </mxCell>
        <mxCell id="IPhS42mVwaJLq9LUPgia-12" value="Nano Intentionality" style="ellipse;whiteSpace=wrap;html=1;aspect=fixed;fontSize=12;labelPosition=left;verticalLabelPosition=middle;align=right;verticalAlign=middle;fillColor=#FF0000;" parent="1" vertex="1">
          <mxGeometry x="502" y="440" width="10" height="10" as="geometry" />
        </mxCell>
        <mxCell id="IPhS42mVwaJLq9LUPgia-13" value="Symbolic Species" style="ellipse;whiteSpace=wrap;html=1;aspect=fixed;fontSize=12;labelPosition=left;verticalLabelPosition=middle;align=right;verticalAlign=middle;" parent="1" vertex="1">
          <mxGeometry x="369" y="359" width="10" height="10" as="geometry" />
        </mxCell>
        <mxCell id="IPhS42mVwaJLq9LUPgia-16" value="Navigation" style="ellipse;whiteSpace=wrap;html=1;aspect=fixed;fontSize=12;labelPosition=left;verticalLabelPosition=middle;align=right;verticalAlign=middle;fillColor=#FF0000;" parent="1" vertex="1">
          <mxGeometry x="406" y="415" width="10" height="10" as="geometry" />
        </mxCell>
        <mxCell id="IPhS42mVwaJLq9LUPgia-17" value="Dexterity" style="ellipse;whiteSpace=wrap;html=1;aspect=fixed;fontSize=12;labelPosition=left;verticalLabelPosition=middle;align=right;verticalAlign=middle;fillColor=#FF0000;" parent="1" vertex="1">
          <mxGeometry x="525" y="383" width="10" height="10" as="geometry" />
        </mxCell>
        <mxCell id="IPhS42mVwaJLq9LUPgia-18" value="Fast Slow" style="ellipse;whiteSpace=wrap;html=1;aspect=fixed;fontSize=12;labelPosition=left;verticalLabelPosition=middle;align=right;verticalAlign=middle;" parent="1" vertex="1">
          <mxGeometry x="280" y="300" width="10" height="10" as="geometry" />
        </mxCell>
        <mxCell id="IPhS42mVwaJLq9LUPgia-20" value="Swarm" style="ellipse;whiteSpace=wrap;html=1;aspect=fixed;fontSize=12;labelPosition=left;verticalLabelPosition=middle;align=right;verticalAlign=middle;" parent="1" vertex="1">
          <mxGeometry x="404" y="380" width="10" height="10" as="geometry" />
        </mxCell>
        <mxCell id="IPhS42mVwaJLq9LUPgia-22" value="Agents" style="ellipse;whiteSpace=wrap;html=1;aspect=fixed;fontSize=12;labelPosition=left;verticalLabelPosition=middle;align=right;verticalAlign=middle;" parent="1" vertex="1">
          <mxGeometry x="270" y="240" width="10" height="10" as="geometry" />
        </mxCell>
        <mxCell id="IPhS42mVwaJLq9LUPgia-23" value="Speech Acts" style="ellipse;whiteSpace=wrap;html=1;aspect=fixed;fontSize=12;labelPosition=left;verticalLabelPosition=middle;align=right;verticalAlign=middle;fillColor=#FF0000;" parent="1" vertex="1">
          <mxGeometry x="304" y="255" width="10" height="10" as="geometry" />
        </mxCell>
        <mxCell id="IPhS42mVwaJLq9LUPgia-24" value="Semantic Graph" style="ellipse;whiteSpace=wrap;html=1;aspect=fixed;fontSize=12;labelPosition=left;verticalLabelPosition=middle;align=right;verticalAlign=middle;" parent="1" vertex="1">
          <mxGeometry x="173" y="214" width="10" height="10" as="geometry" />
        </mxCell>
        <mxCell id="IPhS42mVwaJLq9LUPgia-25" value="Constraint Satisfaction" style="ellipse;whiteSpace=wrap;html=1;aspect=fixed;fontSize=12;labelPosition=left;verticalLabelPosition=middle;align=right;verticalAlign=middle;" parent="1" vertex="1">
          <mxGeometry x="400" y="100" width="10" height="10" as="geometry" />
        </mxCell>
        <mxCell id="IPhS42mVwaJLq9LUPgia-26" value="Energy Minimization" style="ellipse;whiteSpace=wrap;html=1;aspect=fixed;fontSize=12;labelPosition=left;verticalLabelPosition=middle;align=right;verticalAlign=middle;" parent="1" vertex="1">
          <mxGeometry x="485" y="224" width="10" height="10" as="geometry" />
        </mxCell>
        <mxCell id="IPhS42mVwaJLq9LUPgia-27" value="Gestalt" style="ellipse;whiteSpace=wrap;html=1;aspect=fixed;fontSize=12;labelPosition=left;verticalLabelPosition=middle;align=right;verticalAlign=middle;" parent="1" vertex="1">
          <mxGeometry x="320" y="339" width="10" height="10" as="geometry" />
        </mxCell>
        <mxCell id="IPhS42mVwaJLq9LUPgia-28" value="Shared Intentionality" style="ellipse;whiteSpace=wrap;html=1;aspect=fixed;fontSize=12;labelPosition=left;verticalLabelPosition=middle;align=right;verticalAlign=middle;fillColor=#FF0000;" parent="1" vertex="1">
          <mxGeometry x="446" y="430" width="10" height="10" as="geometry" />
        </mxCell>
        <mxCell id="IPhS42mVwaJLq9LUPgia-32" value="Empathy" style="ellipse;whiteSpace=wrap;html=1;aspect=fixed;fontSize=12;labelPosition=left;verticalLabelPosition=middle;align=right;verticalAlign=middle;fillColor=#FF0000;" parent="1" vertex="1">
          <mxGeometry x="376" y="470" width="10" height="10" as="geometry" />
        </mxCell>
        <mxCell id="IPhS42mVwaJLq9LUPgia-38" value="Integrated Information" style="ellipse;whiteSpace=wrap;html=1;aspect=fixed;fontSize=12;labelPosition=left;verticalLabelPosition=middle;align=right;verticalAlign=middle;" parent="1" vertex="1">
          <mxGeometry x="225" y="265" width="10" height="10" as="geometry" />
        </mxCell>
        <mxCell id="IPhS42mVwaJLq9LUPgia-39" value="Global&lt;br&gt;Workspace" style="ellipse;whiteSpace=wrap;html=1;aspect=fixed;fontSize=12;labelPosition=left;verticalLabelPosition=middle;align=right;verticalAlign=middle;" parent="1" vertex="1">
          <mxGeometry x="400" y="255" width="10" height="10" as="geometry" />
        </mxCell>
        <mxCell id="IPhS42mVwaJLq9LUPgia-40" value="PAC" style="ellipse;whiteSpace=wrap;html=1;aspect=fixed;fontSize=12;labelPosition=left;verticalLabelPosition=middle;align=right;verticalAlign=middle;" parent="1" vertex="1">
          <mxGeometry x="300" y="285" width="10" height="10" as="geometry" />
        </mxCell>
        <mxCell id="IPhS42mVwaJLq9LUPgia-41" value="Psi&amp;nbsp;" style="ellipse;whiteSpace=wrap;html=1;aspect=fixed;fontSize=12;labelPosition=left;verticalLabelPosition=middle;align=right;verticalAlign=middle;" parent="1" vertex="1">
          <mxGeometry x="324" y="440" width="10" height="10" as="geometry" />
        </mxCell>
        <mxCell id="IPhS42mVwaJLq9LUPgia-42" value="Complex&lt;br&gt;Adaptive" style="ellipse;whiteSpace=wrap;html=1;aspect=fixed;fontSize=12;labelPosition=left;verticalLabelPosition=middle;align=right;verticalAlign=middle;fillColor=#FF0000;" parent="1" vertex="1">
          <mxGeometry x="560" y="339" width="10" height="10" as="geometry" />
        </mxCell>
        <mxCell id="QQ5lsJfEWCzBgGdAml2e-1" value="Strange&lt;br&gt;Inversion" style="ellipse;whiteSpace=wrap;html=1;aspect=fixed;fontSize=12;labelPosition=left;verticalLabelPosition=middle;align=right;verticalAlign=middle;" parent="1" vertex="1">
          <mxGeometry x="475" y="290" width="10" height="10" as="geometry" />
        </mxCell>
        <mxCell id="QQ5lsJfEWCzBgGdAml2e-2" value="Cognitve&lt;br&gt;Architecture" style="ellipse;whiteSpace=wrap;html=1;aspect=fixed;fontSize=12;labelPosition=left;verticalLabelPosition=middle;align=right;verticalAlign=middle;" parent="1" vertex="1">
          <mxGeometry x="210" y="295" width="10" height="10" as="geometry" />
        </mxCell>
        <mxCell id="QQ5lsJfEWCzBgGdAml2e-3" value="Subsumption" style="ellipse;whiteSpace=wrap;html=1;aspect=fixed;fontSize=12;labelPosition=left;verticalLabelPosition=middle;align=right;verticalAlign=middle;" parent="1" vertex="1">
          <mxGeometry x="455" y="359" width="10" height="10" as="geometry" />
        </mxCell>
        <mxCell id="QQ5lsJfEWCzBgGdAml2e-4" value="NARS" style="ellipse;whiteSpace=wrap;html=1;aspect=fixed;fontSize=12;labelPosition=left;verticalLabelPosition=middle;align=right;verticalAlign=middle;" parent="1" vertex="1">
          <mxGeometry x="193" y="349" width="10" height="10" as="geometry" />
        </mxCell>
      </root>
    </mxGraphModel>
  </diagram>
</mxfile>
